<svg width="171" height="108" viewBox="0 0 171 108" fill="none" xmlns="http://www.w3.org/2000/svg">
<circle cx="54" cy="54" r="54" fill="#F14646"/>
<path fill-rule="evenodd" clip-rule="evenodd" d="M116.854 108C146.677 108 170.854 83.8234 170.854 54C170.854 24.1766 146.677 0 116.854 0C100.861 0 86.4919 6.95251 76.6042 18H92.8541V26H70.6713C69.1298 28.5371 67.7914 31.2113 66.6789 34H92.8541V42H64.1922C63.6021 44.6004 63.1998 47.272 63 50H92.8541V58H63C63.1998 60.728 63.6021 63.3996 64.1922 66H92.8541V74H66.6789C67.7914 76.7887 69.1298 79.4629 70.6713 82H92.8541V90H76.6042C86.4919 101.047 100.861 108 116.854 108Z" fill="#EAAA70"/>
</svg>
