<svg width="40" height="30" viewBox="0 0 40 30" fill="none" xmlns="http://www.w3.org/2000/svg">
<path fill-rule="evenodd" clip-rule="evenodd" d="M4 0C1.79086 0 0 1.79086 0 4V4.5H11C13.4853 4.5 15.5 6.51472 15.5 9V9.5H24.5V9C24.5 6.51472 26.5147 4.5 29 4.5H40V4C40 1.79086 38.2091 0 36 0H4ZM40 5.5H29C27.067 5.5 25.5 7.067 25.5 9V9.5V10V14.5H40V5.5ZM40 15.5V24.5H29C27.067 24.5 25.5 22.933 25.5 21V20.5V20V15.5H40ZM40 25.5V26C40 28.2091 38.2091 30 36 30H4C1.79086 30 0 28.2091 0 26V25.5H11C13.4853 25.5 15.5 23.4853 15.5 21V20.5H24.5V21C24.5 23.4853 26.5147 25.5 29 25.5H40ZM0 24.5H11C12.933 24.5 14.5 22.933 14.5 21V20.5V20V15.5H0V24.5ZM0 14.5H14.5V10V9.5V9C14.5 7.067 12.933 5.5 11 5.5H0V14.5ZM24.5 19.5H15.5V10.5H24.5V19.5Z" fill="white"/>
</svg>
